<?xml version="1.0" encoding="UTF-8"?>
<svg version="1.1" xmlns="http://www.w3.org/2000/svg" width="32" height="32">
<path d="M0 0 C1.588125 -0.061875 3.17625 -0.12375 4.8125 -0.1875 C6.15248047 -0.23970703 6.15248047 -0.23970703 7.51953125 -0.29296875 C10 0 10 0 11.76953125 1.3125 C13.8332281 4.14271283 13.88649529 6.5381063 14 10 C13.22486318 12.82406535 12.18230501 15.30434457 11 18 C9.02 18 7.04 18 5 18 C5 17.34 5 16.68 5 16 C3.35 16 1.7 16 0 16 C0 10.72 0 5.44 0 0 Z M4 4 C4 6.64 4 9.28 4 12 C4.33 12 4.66 12 5 12 C5.103125 11.21625 5.20625 10.4325 5.3125 9.625 C6 7 6 7 9 5 C7.35 4.67 5.7 4.34 4 4 Z " fill="#16283E" transform="translate(9,8)"/>
<path d="M0 0 C1.82421875 0.20703125 1.82421875 0.20703125 4 1 C6.88424053 4.93709953 8.96446943 9.22347139 9.0625 14.125 C7.66251645 17.91319079 5.93318553 21.45732512 4 25 C2.68 25 1.36 25 0 25 C0.46002696 21.87181669 1.0933018 19.83758576 2.6875 17.0625 C4.32938902 14.05217753 4.32938902 14.05217753 3.3125 10.875 C2.54247877 9.18828683 1.74254181 7.51369009 0.875 5.875 C0 4 0 4 0 0 Z " fill="#0E1E31" transform="translate(21,3)"/>
<path d="M0 0 C1.65 0 3.3 0 5 0 C4.58105469 0.81082031 4.16210938 1.62164063 3.73046875 2.45703125 C0.52272517 9.13678921 0.52272517 9.13678921 0.78125 16.3125 C2.04275429 19.00370914 3.37871066 21.5106973 5 24 C3.35 24 1.7 24 0 24 C-5.19871122 14.94035666 -5.19871122 14.94035666 -4.734375 10.40625 C-3.96785958 8.15179289 -3.09921405 6.11065816 -2 4 C-1.63003906 3.25621094 -1.26007812 2.51242188 -0.87890625 1.74609375 C-0.58886719 1.16988281 -0.29882812 0.59367188 0 0 Z " fill="#0D1D30" transform="translate(5,4)"/>
<path d="M0 0 C1.32 0.33 2.64 0.66 4 1 C3.34 1 2.68 1 2 1 C2.83333333 3.16666667 2.83333333 3.16666667 5 4 C4.67 6.64 4.34 9.28 4 12 C4.66 12 5.32 12 6 12 C6 13.32 6 14.64 6 16 C4.02 16 2.04 16 0 16 C0 10.72 0 5.44 0 0 Z " fill="#12212F" transform="translate(9,8)"/>
<path d="M0 0 C1.32 0 2.64 0 4 0 C3.34 2.97 2.68 5.94 2 9 C2.99 9 3.98 9 5 9 C5 9.99 5 10.98 5 12 C3.02 12 1.04 12 -1 12 C-1.02687279 10.18757948 -1.04633715 8.37504767 -1.0625 6.5625 C-1.07410156 5.55316406 -1.08570313 4.54382813 -1.09765625 3.50390625 C-1 1 -1 1 0 0 Z " fill="#E38C50" transform="translate(15,14)"/>
<path d="M0 0 C0 1.65 0 3.3 0 5 C-1.98 4.34 -3.96 3.68 -6 3 C-6.33 3.99 -6.66 4.98 -7 6 C-7 4.35 -7 2.7 -7 1 C-4.53721199 -0.231394 -2.7204945 -0.07159196 0 0 Z " fill="#1B334A" transform="translate(18,8)"/>
<path d="M0 0 C1.32 0 2.64 0 4 0 C3.67 1.32 3.34 2.64 3 4 C2.34 4 1.68 4 1 4 C0.34 4.66 -0.32 5.32 -1 6 C-1.042721 4.33388095 -1.04063832 2.66617115 -1 1 C-0.67 0.67 -0.34 0.34 0 0 Z " fill="#D3844E" transform="translate(15,14)"/>
<path d="" fill="#08080B" transform="translate(0,0)"/>
<path d="" fill="#18293D" transform="translate(0,0)"/>
</svg>
