<svg xmlns="http://www.w3.org/2000/svg" viewBox="0 0 280 60" width="280" height="60">
  <defs>
    <linearGradient id="logoGradient" x1="0%" y1="0%" x2="100%" y2="100%">
      <stop offset="0%" style="stop-color:#1a56db"/>
      <stop offset="100%" style="stop-color:#0891b2"/>
    </linearGradient>
  </defs>
  
  <!-- Gear Icon -->
  <g transform="translate(5, 8)" fill="url(#logoGradient)">
    <path d="M38.5,22.5l-2.8-1.7c-0.8-0.5-1.3-1.3-1.3-2.2v-1.5c0-0.9,0.5-1.8,1.3-2.2l2.8-1.7c0.6-0.3,1-0.9,1.2-1.5s0.1-1.3-0.2-1.9l-1.3-2.3c-0.7-1.2-2.2-1.6-3.4-0.9l-2.8,1.7c-0.8,0.5-1.7,0.5-2.5,0l-1.3-0.8c-0.8-0.5-1.3-1.3-1.3-2.2v-3.3c0-1.4-1.1-2.5-2.5-2.5h-2.6c-1.4,0-2.5,1.1-2.5,2.5v3.3c0,0.9-0.5,1.7-1.3,2.2l-1.3,0.8c-0.8,0.5-1.7,0.5-2.5,0l-2.8-1.7c-1.2-0.7-2.7-0.3-3.4,0.9l-1.3,2.3c-0.3,0.6-0.4,1.3-0.3,1.9s0.6,1.2,1.2,1.5l2.8,1.7c0.8,0.5,1.3,1.3,1.3,2.2v1.5c0,0.9-0.5,1.7-1.3,2.2l-2.8,1.7c-1.2,0.7-1.6,2.2-0.9,3.4l1.3,2.3c0.7,1.2,2.2,1.6,3.4,0.9l2.8-1.7c0.8-0.5,1.7-0.5,2.5,0l1.3,0.8c0.8,0.5,1.3,1.3,1.3,2.2v2.8c0,1.4,1.1,2.5,2.5,2.5h2.6c1.4,0,2.5-1.1,2.5-2.5v-2.8c0-0.9,0.5-1.7,1.3-2.2l1.3-0.8c0.8-0.5,1.7-0.5,2.5,0l2.8,1.7c1.2,0.7,2.7,0.3,3.4-0.9l1.3-2.3C40.8,24.7,40.4,23.2,38.5,22.5z M22,27c-2.9,0-5.3-2.4-5.3-5.3s2.4-5.3,5.3-5.3s5.3,2.4,5.3,5.3S24.9,27,22,27z"/>
  </g>
  
  <!-- Text: DigitEase -->
  <text x="55" y="42" font-family="Poppins, Arial, sans-serif" font-size="32" font-weight="700" fill="url(#logoGradient)">
    DigitEase
  </text>
</svg>